<svg xmlns="http://www.w3.org/2000/svg" viewBox="0 0 512 399.42" preserveAspectRatio="xMidYMid meet" aria-hidden="true">
	<path fill="currentColor" d="M34.91 399.42h81.454V201.6L0 114.327V364.51c0 19.287 15.622 34.91 34.91 34.91z" />
	<path fill="currentColor" d="M395.636 399.42h81.455c19.287 0 34.909-15.622 34.909-34.909V114.327L395.636 201.6z" />
	<path fill="currentColor" d="M395.636 50.327V201.6L512 114.327v-46.545c0-43.142-49.25-67.782-83.782-41.891z" />
	<path fill="currentColor" d="M116.364 201.6V50.327L256 155.055 395.636 50.327V201.6L256 306.327z" />
	<path fill="currentColor" d="M0 67.782v46.545L116.364 201.6V50.327L83.782 25.891C49.25 0 0 24.64 0 67.782z" />
</svg>
